<svg width="50" height="50" viewBox="0 0 50 50" fill="none" xmlns="http://www.w3.org/2000/svg">
<g clip-path="url(#clip0_152_667)">
<path d="M9.08945 49.7513V46.442C9.08945 45.1732 8.48906 44.346 7.45996 44.346C6.94551 44.346 6.38809 44.5666 6.00215 45.2837C5.70215 44.6769 5.27344 44.346 4.63027 44.346C4.20137 44.346 3.77285 44.5114 3.42969 45.1181V44.4563H2.5293V49.7513H3.42969V46.8279C3.42969 45.8905 3.81562 45.449 4.41602 45.449C5.01602 45.449 5.31641 45.9455 5.31641 46.8279V49.7513H6.2168V46.8279C6.2168 45.8905 6.64531 45.449 7.20273 45.449C7.80313 45.449 8.10313 45.9455 8.10313 46.8279V49.7513H9.08945ZM22.4236 44.4563H20.966V42.8568H20.0656V44.4563H19.251V45.5041H20.0654V47.9312C20.0654 49.1448 20.4514 49.8616 21.4805 49.8616C21.8664 49.8616 22.2949 49.6963 22.5953 49.4757L22.3379 48.4827C22.0807 48.7033 21.7807 48.7586 21.5662 48.7586C21.1375 48.7586 20.966 48.4277 20.966 47.8759V45.5041H22.4236V44.4563ZM30.0557 44.3458C29.5412 44.3458 29.1982 44.6769 28.9838 45.1181V44.4563H28.0834V49.7513H28.9838V46.7729C28.9838 45.8905 29.2838 45.394 29.8412 45.394C30.0127 45.394 30.2271 45.4493 30.3986 45.5043L30.6559 44.4013C30.4844 44.346 30.2271 44.346 30.0557 44.346V44.3458ZM18.5221 44.8975C18.0932 44.5114 17.493 44.346 16.8498 44.346C15.8209 44.346 15.135 45.0078 15.135 46.0558C15.135 46.9385 15.6494 47.4347 16.5498 47.6003L16.9785 47.6556C17.4502 47.7656 17.7074 47.9312 17.7074 48.2071C17.7074 48.593 17.3645 48.8689 16.7641 48.8689C16.1639 48.8689 15.6922 48.593 15.392 48.3174L14.9633 49.1998C15.435 49.641 16.0781 49.8616 16.7211 49.8616C17.9217 49.8616 18.6078 49.1448 18.6078 48.1518C18.6078 47.2141 18.0504 46.7176 17.1928 46.5523L16.7641 46.497C16.3781 46.4418 16.0781 46.3317 16.0781 46.0008C16.0781 45.6146 16.3781 45.394 16.8498 45.394C17.3645 45.394 17.8789 45.6696 18.1361 45.8352L18.5221 44.8975ZM42.4469 44.346C41.9322 44.346 41.5893 44.6769 41.3748 45.1181V44.4563H40.4744V49.7513H41.3748V46.7729C41.3748 45.8905 41.675 45.394 42.2322 45.394C42.4039 45.394 42.6184 45.4493 42.7898 45.5043L43.0471 44.4013C42.8756 44.346 42.6184 44.346 42.4469 44.346ZM30.9561 47.1038C30.9561 48.7033 31.8135 49.8616 33.1428 49.8616C33.743 49.8616 34.1717 49.6963 34.6004 49.2551L34.1717 48.3174C33.8287 48.6483 33.4857 48.8136 33.0998 48.8136C32.3709 48.8136 31.8564 48.1518 31.8564 47.1038C31.8564 46.1111 32.3709 45.449 33.0998 45.394C33.4857 45.394 33.8287 45.5593 34.1717 45.8905L34.6004 44.9528C34.1717 44.5114 33.743 44.346 33.1428 44.346C31.8135 44.346 30.9561 45.5043 30.9561 47.1038ZM39.274 47.1038V44.4563H38.3736V45.1181C38.0734 44.6219 37.6447 44.346 37.0873 44.346C35.9297 44.346 35.0293 45.5043 35.0293 47.1038C35.0293 48.7033 35.9297 49.8616 37.0873 49.8616C37.6875 49.8616 38.1164 49.586 38.3736 49.0895V49.7513H39.274V47.1038ZM35.9725 47.1038C35.9725 46.1661 36.4441 45.394 37.2158 45.394C37.9447 45.394 38.4594 46.1111 38.4594 47.1038C38.4594 48.0415 37.9447 48.8136 37.2158 48.8136C36.4441 48.7583 35.9725 48.0415 35.9725 47.1038ZM25.2107 44.346C24.0102 44.346 23.1525 45.449 23.1525 47.1038C23.1525 48.7586 24.01 49.8616 25.2535 49.8616C25.8537 49.8616 26.4541 49.641 26.9258 49.1448L26.4969 48.3174C26.1539 48.6483 25.7252 48.8689 25.2965 48.8689C24.7391 48.8689 24.1816 48.538 24.0529 47.6001H27.0973V47.1591C27.1402 45.449 26.3684 44.346 25.2105 44.346H25.2107ZM25.2107 45.3387C25.768 45.3387 26.1541 45.7802 26.2396 46.6076H24.0959C24.1816 45.8905 24.5676 45.3387 25.2107 45.3387ZM47.549 47.1038V42.3604H46.6486V45.1181C46.3484 44.6219 45.9197 44.346 45.3623 44.346C44.2047 44.346 43.3043 45.5043 43.3043 47.1038C43.3043 48.7033 44.2047 49.8616 45.3623 49.8616C45.9627 49.8616 46.3914 49.586 46.6486 49.0895V49.7513H47.549V47.1038ZM44.2477 47.1038C44.2477 46.1661 44.7191 45.394 45.491 45.394C46.2199 45.394 46.7344 46.1111 46.7344 47.1038C46.7344 48.0415 46.2199 48.8136 45.491 48.8136C44.7191 48.7583 44.2477 48.0415 44.2477 47.1038ZM14.1486 47.1038V44.4563H13.2482V45.1181C12.948 44.6219 12.5193 44.346 11.9619 44.346C10.8043 44.346 9.90391 45.5043 9.90391 47.1038C9.90391 48.7033 10.8043 49.8616 11.9619 49.8616C12.5623 49.8616 12.991 49.586 13.2482 49.0895V49.7513H14.1486V47.1038ZM10.8043 47.1038C10.8043 46.1661 11.276 45.394 12.0477 45.394C12.7766 45.394 13.2912 46.1111 13.2912 47.1038C13.2912 48.0415 12.7766 48.8136 12.0477 48.8136C11.276 48.7583 10.8043 48.0415 10.8043 47.1038Z" fill="black"/>
<path d="M18.2227 4.24707H31.7285V35.4659H18.2227V4.24707Z" fill="#FF5F00"/>
<path d="M19.0799 19.8565C19.0799 13.5136 21.3951 7.88744 24.9537 4.24698C22.3385 1.5995 19.0371 0 15.4355 0C6.90293 0 0 8.88015 0 19.8565C0 30.8327 6.90293 39.7131 15.4354 39.7131C19.0369 39.7131 22.3383 38.1136 24.9537 35.4658C21.3951 31.8807 19.0799 26.1995 19.0799 19.8565Z" fill="#EB001B"/>
<path d="M49.9508 19.8565C49.9508 30.8327 43.0478 39.7131 34.5154 39.7131C30.9139 39.7131 27.6125 38.1136 24.9971 35.4658C28.5986 31.8256 30.8711 26.1995 30.8711 19.8565C30.8711 13.5136 28.5557 7.88744 24.9971 4.24698C27.6123 1.5995 30.9139 0 34.5154 0C43.0478 0 49.951 8.93543 49.951 19.8565H49.9508Z" fill="#F79E1B"/>
</g>
<defs>
<clipPath id="clip0_152_667">
<rect width="50" height="50" fill="white"/>
</clipPath>
</defs>
</svg>
