<svg width="50" height="50" viewBox="0 0 50 50" fill="none" xmlns="http://www.w3.org/2000/svg">
<path d="M22.9167 4.1665L38.1208 8.9165C38.5449 9.04888 38.9155 9.31334 39.1786 9.67127C39.4417 10.0292 39.5835 10.4619 39.5833 10.9061V14.5832H43.75C44.3025 14.5832 44.8324 14.8027 45.2231 15.1934C45.6138 15.5841 45.8333 16.114 45.8333 16.6665V33.3332C45.8333 33.8857 45.6138 34.4156 45.2231 34.8063C44.8324 35.197 44.3025 35.4165 43.75 35.4165L37.0417 35.4186C36.2354 36.4811 35.2562 37.4186 34.125 38.1894L22.9167 45.8332L11.7083 38.1915C10.0261 37.0445 8.64948 35.504 7.69821 33.7038C6.74693 31.9037 6.24979 29.8984 6.25 27.8623V10.9061C6.25025 10.4622 6.39226 10.03 6.65534 9.67252C6.91841 9.315 7.28879 9.05086 7.7125 8.91859L22.9167 4.1665ZM22.9167 8.529L10.4167 12.4373V27.8623C10.4164 29.1378 10.7089 30.3963 11.2716 31.541C11.8343 32.6856 12.6523 33.6857 13.6625 34.4644L14.0563 34.7478L22.9167 40.7915L30.7958 35.4165H20.8333C20.2808 35.4165 19.7509 35.197 19.3602 34.8063C18.9695 34.4156 18.75 33.8857 18.75 33.3332V16.6665C18.75 16.114 18.9695 15.5841 19.3602 15.1934C19.7509 14.8027 20.2808 14.5832 20.8333 14.5832H35.4167V12.4373L22.9167 8.529ZM22.9167 24.9998V31.2498H41.6667V24.9998H22.9167ZM22.9167 20.8332H41.6667V18.7498H22.9167V20.8332Z" fill="black"/>
</svg>
