<svg width="58" height="62" viewBox="0 0 58 62" fill="none" xmlns="http://www.w3.org/2000/svg">
<path d="M51.2 0H6.4C2.88 0 0 3.27446 0 7.27658V58.2126C0 62.2184 2.88 65.4892 6.4 65.4892H51.2C54.72 65.4892 57.6 62.2184 57.6 58.2126V7.27658C57.6 3.27446 54.72 0 51.2 0ZM28.7488 52.8389C33.4492 52.8379 37.9567 50.7143 41.2801 46.9351C44.6034 43.1558 46.4704 38.0305 46.4704 32.6864C46.4704 31.4566 46.3328 30.2706 46.1408 29.1063H51.2V55.3602C51.2 55.6908 51.1426 56.0181 51.031 56.3234C50.9194 56.6287 50.756 56.906 50.5499 57.1392C50.3439 57.3725 50.0993 57.5572 49.8303 57.6827C49.5613 57.8082 49.2732 57.8721 48.9824 57.8706H8.6176C8.32683 57.8721 8.03868 57.8082 7.76969 57.6827C7.50069 57.5572 7.25615 57.3725 7.0501 57.1392C6.84405 56.906 6.68055 56.6287 6.56899 56.3234C6.45743 56.0181 6.4 55.6908 6.4 55.3602V29.1063H11.3568C11.1616 30.2706 11.024 31.4566 11.024 32.6864C11.0248 38.0309 12.8926 43.1562 16.2164 46.9353C19.5403 50.7144 24.0482 52.8379 28.7488 52.8389ZM17.6736 32.6864C17.6736 31.0328 17.9601 29.3953 18.5166 27.8676C19.0732 26.3398 19.889 24.9517 20.9175 23.7824C21.9459 22.6131 23.1668 21.6856 24.5105 21.0528C25.8542 20.42 27.2944 20.0943 28.7488 20.0943C30.2032 20.0943 31.6434 20.42 32.9871 21.0528C34.3308 21.6856 35.5517 22.6131 36.5802 23.7824C37.6086 24.9517 38.4244 26.3398 38.981 27.8676C39.5375 29.3953 39.824 31.0328 39.824 32.6864C39.824 36.026 38.6572 39.2289 36.5802 41.5904C34.5031 43.9518 31.6861 45.2785 28.7488 45.2785C25.8115 45.2785 22.9945 43.9518 20.9175 41.5904C18.8404 39.2289 17.6736 36.026 17.6736 32.6864ZM48.9824 18.1914H43.8144C43.2276 18.1895 42.6654 17.9237 42.2505 17.4519C41.8355 16.9802 41.6017 16.3409 41.6 15.6737V9.79064C41.6 8.40081 42.592 7.27658 43.8112 7.27658H48.9792C50.208 7.27658 51.2 8.40081 51.2 9.79064V15.6701C51.2 17.0563 50.208 18.1914 48.9824 18.1914Z" fill="url(#paint0_linear_129_282)"/>
<defs>
<linearGradient id="paint0_linear_129_282" x1="28.8" y1="0" x2="28.8" y2="65.4892" gradientUnits="userSpaceOnUse">
<stop stop-color="#FB0F64"/>
<stop offset="1" stop-color="#10100D" stop-opacity="0"/>
</linearGradient>
</defs>
</svg>
