<svg width="64" height="64" viewBox="0 0 64 64" fill="none" xmlns="http://www.w3.org/2000/svg">
<path d="M1.3659 31.617C1.3644 36.9942 2.7804 42.2447 5.4729 46.8726L1.1084 62.6845L17.4164 58.4417C21.927 60.8782 26.9807 62.1548 32.1164 62.1552H32.1299C49.0836 62.1552 62.8844 48.4664 62.8916 31.6411C62.8949 23.488 59.6979 15.8214 53.8894 10.0535C48.0819 4.28601 40.3582 1.10809 32.1287 1.10437C15.1729 1.10437 1.37315 14.7924 1.36615 31.617" fill="url(#paint0_linear_129_287)"/>
<path d="M0.2675 31.6071C0.26575 37.1778 1.7325 42.6161 4.521 47.4096L0 63.7884L16.8927 59.3935C21.5472 61.9116 26.7878 63.2392 32.1203 63.2412H32.134C49.696 63.2412 63.9925 49.06 64 31.6324C64.003 23.1864 60.691 15.2442 54.675 9.26958C48.6582 3.29575 40.6582 0.00347287 32.134 0C14.569 0 0.27475 14.1792 0.26775 31.6071H0.2675ZM10.3275 46.5841L9.69675 45.5906C7.04525 41.4073 5.64575 36.573 5.64775 31.6091C5.6535 17.1235 17.5345 5.33829 32.144 5.33829C39.219 5.34127 45.868 8.07789 50.869 13.0431C55.8698 18.0088 58.6215 24.6097 58.6198 31.6304C58.6133 46.116 46.732 57.9026 32.134 57.9026H32.1235C27.3703 57.9002 22.7085 56.6336 18.643 54.24L17.6755 53.6707L7.651 56.2786L10.3275 46.5838V46.5841Z" fill="url(#paint1_linear_129_287)"/>
<path d="M24.1699 18.3934C23.5734 17.0779 22.9456 17.0513 22.3784 17.0283C21.9139 17.0084 21.3829 17.0099 20.8524 17.0099C20.3214 17.0099 19.4586 17.2081 18.7294 17.9982C17.9994 18.789 15.9424 20.7001 15.9424 24.587C15.9424 28.4741 18.7956 32.2305 19.1934 32.7581C19.5916 33.2848 24.7016 41.5165 32.7946 44.6832C39.5206 47.3149 40.8894 46.7915 42.3491 46.6595C43.8091 46.528 47.0601 44.749 47.7234 42.9041C48.3871 41.0595 48.3871 39.4784 48.1881 39.148C47.9891 38.8188 47.4581 38.6211 46.6619 38.2262C45.8654 37.831 41.9509 35.9197 41.2211 35.656C40.4911 35.3925 39.9604 35.2611 39.4294 36.0521C38.8984 36.842 37.3736 38.6211 36.9089 39.148C36.4446 39.6761 35.9799 39.7418 35.1839 39.3467C34.3871 38.9503 31.8229 38.117 28.7806 35.4258C26.4136 33.3316 24.8156 30.7456 24.3511 29.9545C23.8866 29.1647 24.3014 28.7366 24.7006 28.3429C25.0584 27.9889 25.4971 27.4203 25.8956 26.9592C26.2926 26.4978 26.4251 26.1686 26.6906 25.6417C26.9564 25.1143 26.8234 24.653 26.6246 24.2578C26.4251 23.8626 24.8779 19.9557 24.1699 18.3936" fill="white"/>
<defs>
<linearGradient id="paint0_linear_129_287" x1="32" y1="62.6845" x2="32" y2="1.10437" gradientUnits="userSpaceOnUse">
<stop stop-color="#1FAF38"/>
<stop offset="1" stop-color="#60D669"/>
</linearGradient>
<linearGradient id="paint1_linear_129_287" x1="32" y1="63.7884" x2="32" y2="0" gradientUnits="userSpaceOnUse">
<stop stop-color="#F9F9F9"/>
<stop offset="1" stop-color="white"/>
</linearGradient>
</defs>
</svg>
