<svg width="50" height="50" viewBox="0 0 50 50" fill="none" xmlns="http://www.w3.org/2000/svg">
<g clip-path="url(#clip0_152_672)">
<path d="M46.6667 50.0002H3.33333C2.44928 50.0002 1.60143 49.4734 0.976311 48.5358C0.351189 47.5981 0 46.3263 0 45.0002L0 23.9669H2.40139L2.94306 22.0002H4.15556L4.69583 23.9586H9.42083V22.469L9.84306 23.969H12.2958L12.7181 22.444V23.9648H24.4583V20.7481H24.6806C24.8389 20.7565 24.8847 20.7773 24.8847 21.1731V23.969H30.9583V23.2211C31.5792 23.694 32.3111 23.9711 33.0875 23.9711L33.2194 23.969H33.2125H35.7681L36.3153 22.0106H37.5278L38.0625 23.969H42.9875V22.1065L43.7319 23.969H47.6708V11.669H43.7722V13.1211L43.2264 11.669H39.2181V13.1211L38.7167 11.669H33.3042C32.4841 11.6068 31.6671 11.86 30.9306 12.4044L30.9597 12.3856V11.669H27.2264V12.3856C26.7745 11.8514 26.2038 11.5958 25.6306 11.6711H25.6389H11.9958L11.0806 14.8481L10.1403 11.6711H5.84306V13.1231L5.36944 11.6711H1.70278L0.00416667 17.5044V5.00439C0.00416667 3.67831 0.355356 2.40654 0.980477 1.46886C1.6056 0.531179 2.45345 0.00439453 3.3375 0.00439453H46.6708C47.5549 0.00439453 48.4027 0.531179 49.0279 1.46886C49.653 2.40654 50.0042 3.67831 50.0042 5.00439V26.8377H47.4028C47.3611 26.8336 47.3111 26.8336 47.2625 26.8336C46.6597 26.8336 46.1 27.1044 45.6333 27.569L45.6444 27.5586V26.8377H41.7972C41.1962 26.7879 40.6015 27.0441 40.1097 27.5648L40.1181 27.5565V26.8356H33.2486V27.5565C32.6863 27.0808 32.0512 26.8324 31.4056 26.8356H31.3514H31.3542H26.8222V27.5565C26.2301 26.9876 25.5275 26.7344 24.8278 26.8377L24.8403 26.8356H19.7694L18.6083 28.719L17.5222 26.8356H9.94722V39.144H17.3806L18.5764 37.2315L19.7028 39.144H24.2847V36.2627H24.9236C25.5379 36.2987 26.1506 36.1449 26.7236 35.8106L26.6931 35.8273V39.1481H30.4708V35.9419H30.6528C30.8833 35.9419 30.9069 35.9544 30.9069 36.3044V39.1502H42.3875L42.5278 39.1544C43.1861 39.1544 43.8 38.8586 44.3111 38.3523L44.2986 38.3627V39.1502H47.9403L48.1139 39.1544C48.7958 39.1544 49.4444 38.944 50.0333 38.5627L50.0014 38.5815V45.0023C50.0014 46.3284 49.6502 47.6002 49.0251 48.5378C48.4 49.4755 47.5521 50.0023 46.6681 50.0023L46.6667 50.0002ZM29.3125 37.419H27.8986V28.5961H31.1431C31.729 28.5146 32.3191 28.6625 32.8556 29.0252L32.8333 29.0127C33.2681 29.3711 33.5583 30.0544 33.5583 30.8377L33.5556 30.9773V30.9711L33.5569 31.0502C33.5569 32.0627 33.15 32.9336 32.5667 33.3127L32.5556 33.319C32.8347 33.469 33.0681 33.7252 33.2417 34.0565L33.2444 34.0606C33.4405 34.5475 33.5227 35.1187 33.4778 35.6836L33.4792 35.6711V37.4169H32.0681V36.3127C32.1349 35.7116 32.0545 35.0944 31.8417 34.5752L31.8458 34.5856C31.6992 34.4187 31.5316 34.2981 31.353 34.2312C31.1744 34.1642 30.9887 34.1523 30.8069 34.1961L30.8153 34.194H29.3125V37.4169V37.419ZM29.3125 30.419V32.4002H31.0208C31.2621 32.4336 31.5049 32.3689 31.7236 32.2127L31.7153 32.219C31.8047 32.1324 31.8782 32.0137 31.9291 31.8736C31.98 31.7335 32.0068 31.5765 32.0069 31.4169L32.0056 31.369V31.3711C32.0124 31.2118 31.9891 31.0529 31.9382 30.9128C31.8873 30.7727 31.811 30.6571 31.7181 30.5794L31.7153 30.5773C31.5045 30.4359 31.273 30.3785 31.0431 30.4106H31.0486L29.3125 30.419ZM16.7778 37.4169H11.2125V28.5961H16.8653L18.5944 31.4877L20.3819 28.5961H24.8722C26.4667 28.5961 27.2417 29.5481 27.2417 31.5023C27.2417 33.4919 26.4403 34.4586 24.7972 34.4586H23.0403V37.4148H20.3083L18.5778 34.5002L16.7792 37.4169H16.7778ZM21.6403 29.5419L19.4819 33.0211L21.6403 36.6127V29.5419ZM12.6139 33.8231V35.5773H16.0694L17.6667 32.9898L16.1306 30.419H12.6125V32.0231H15.6986V33.8211L12.6139 33.8231ZM23.0403 30.4211V32.6669H24.8556C25.4111 32.6669 25.7306 32.2419 25.7306 31.5002C25.7306 30.7919 25.4333 30.419 24.8708 30.419L23.0403 30.4211ZM48.0931 37.4211H45.3792V35.5252H48.0819C48.2842 35.5671 48.4893 35.4877 48.6528 35.3044L48.6514 35.3065C48.7036 35.2339 48.7452 35.1459 48.7736 35.048C48.8021 34.9501 48.8167 34.8445 48.8167 34.7377V34.7044C48.8168 34.5989 48.8015 34.4947 48.772 34.399C48.7425 34.3033 48.6995 34.2184 48.6458 34.1502C48.5021 33.9944 48.3248 33.9246 48.1486 33.9544H48.1514L47.8917 33.9419C46.6222 33.8919 45.1847 33.8336 45.1847 31.2231C45.1847 29.9523 45.7153 28.5961 47.2 28.5961H50.0014V30.4752H47.4389C47.241 30.442 47.041 30.5017 46.8667 30.6461L46.8722 30.6419C46.8037 30.7096 46.7485 30.8037 46.7126 30.9145C46.6767 31.0252 46.6613 31.1483 46.6681 31.2711V31.269V31.2919C46.6681 31.4323 46.6976 31.5691 46.7524 31.6828C46.8073 31.7965 46.8847 31.8814 46.9736 31.9252L46.9764 31.9273C47.1525 32.0088 47.3368 32.0426 47.5208 32.0273H47.5167L48.2792 32.0565C48.8539 31.9704 49.4282 32.2271 49.8778 32.7711L49.8736 32.7669C49.9153 32.8169 49.9514 32.8711 49.9833 32.9315L49.9847 32.9336L50.0014 36.2919C49.7678 36.7013 49.4707 37.0182 49.1362 37.2148C48.8017 37.4113 48.4401 37.4815 48.0833 37.419L48.0931 37.4211ZM42.6083 37.4211H39.8694V35.5252H42.5944C42.7983 35.5653 43.0047 35.4862 43.1708 35.3044L43.1681 35.3065C43.2199 35.2336 43.2612 35.1455 43.2894 35.0477C43.3176 34.9498 43.3321 34.8443 43.3319 34.7377V34.7169C43.3319 34.6097 43.3166 34.5037 43.2872 34.406C43.2577 34.3083 43.2147 34.2211 43.1611 34.1502C43.0148 33.9943 42.8353 33.9245 42.6569 33.9544H42.6597L42.4014 33.9419C41.1361 33.8919 39.7 33.8336 39.7 31.2231C39.7 29.9523 40.2278 28.5961 41.7097 28.5961H44.5264V30.4752H41.9486C41.752 30.4423 41.5535 30.502 41.3806 30.6461L41.3861 30.6419C41.3132 30.7172 41.2551 30.8207 41.2181 30.9414C41.1811 31.0621 41.1666 31.1955 41.1759 31.3276C41.1853 31.4597 41.2183 31.5856 41.2715 31.6919C41.3246 31.7981 41.3959 31.8809 41.4778 31.9315L41.4806 31.9336C41.659 32.0156 41.8457 32.0495 42.0319 32.0336H42.0278L42.7847 32.0627C43.3625 31.9792 43.9393 32.2362 44.3931 32.7794L44.3889 32.7731C44.5415 33.0255 44.6576 33.3226 44.7298 33.6457C44.802 33.9688 44.8287 34.3108 44.8083 34.6502V34.6398C44.8125 36.4794 44.0694 37.4169 42.6042 37.4169L42.6083 37.4211ZM39.0278 37.4211H34.3333V28.594H39.0236V30.4169H35.7361V32.0211H38.9472V33.819H35.7361V35.5731L39.0278 35.5815V37.4148V37.4211ZM41.7639 22.2419H38.9014L38.3542 20.2752H35.4347L34.9042 22.2419H33.2597C32.5212 22.3003 31.794 21.9513 31.2153 21.2606L31.2222 21.2669C30.9473 20.8117 30.7386 20.2756 30.6095 19.6927C30.4803 19.1098 30.4336 18.493 30.4722 17.8815L30.4708 17.8981C30.4351 17.2754 30.4841 16.6482 30.6149 16.0548C30.7458 15.4614 30.9557 14.914 31.2319 14.4461L31.2292 14.4502C31.5208 14.0677 31.8618 13.7793 32.231 13.6029C32.6002 13.4266 32.9896 13.3661 33.375 13.4252L33.3639 13.4231H34.725V15.3044H33.3917C33.1966 15.2667 32.9983 15.294 32.8111 15.3844C32.6238 15.4748 32.4522 15.626 32.3083 15.8273L32.3097 15.8252C32.0128 16.3957 31.8686 17.1119 31.9056 17.8336V17.8231C31.8613 18.5645 32.0002 19.3045 32.2958 19.9023L32.2917 19.894C32.5678 20.2324 32.9212 20.3955 33.2764 20.3481H33.2708H33.9014L35.8889 13.4106H38L40.3792 21.744V13.4106H42.5194L44.9889 19.5523V13.4106H46.4333V22.2273H44.4278L41.7611 15.6065V22.2273L41.7639 22.2419ZM36.9042 14.9127L35.9361 18.4294H37.8764L36.9042 14.9127ZM23.2944 22.2377H21.8889V13.4169H25.1222C25.7125 13.325 26.3082 13.4755 26.8458 13.8523L26.825 13.8398C27.0412 14.0191 27.2214 14.282 27.3469 14.6011C27.4725 14.9202 27.5387 15.2839 27.5389 15.6544L27.5361 15.8002V15.794V15.8586C27.5362 16.3397 27.4438 16.8107 27.2698 17.215C27.0959 17.6192 26.8479 17.9397 26.5556 18.1377L26.5444 18.144C26.8236 18.3023 27.0583 18.5565 27.2375 18.8815L27.2403 18.8856C27.4384 19.3743 27.5202 19.9494 27.4722 20.5169L27.4736 20.5044V22.2356H26.0556L26.05 21.1231V20.9565C26.1005 20.4125 26.0202 19.8594 25.8236 19.3961L25.8278 19.4065C25.6807 19.2444 25.5136 19.1276 25.3363 19.0629C25.1589 18.9981 24.9748 18.9868 24.7944 19.0294L24.8028 19.0273H23.2958V22.2356L23.2944 22.2377ZM23.2944 15.2523V17.2106H25C25.2409 17.2499 25.4843 17.1848 25.7014 17.0231L25.6944 17.0273C25.7834 16.9462 25.857 16.8321 25.9081 16.696C25.9591 16.5599 25.986 16.4064 25.9861 16.2502L25.9847 16.1919V16.194C25.9918 16.0357 25.9678 15.8777 25.9157 15.7396C25.8636 15.6016 25.7858 15.4894 25.6917 15.4169L25.6889 15.4148C25.4775 15.2788 25.2474 15.2216 25.0181 15.2481H25.0222L23.2944 15.2523ZM8.41111 22.2377H5.55556L5.01528 20.2711H2.0875L1.54306 22.2377H0.0152778L2.53333 13.4169H4.62083L7.01111 21.7648V13.4169H9.30417L11.1431 19.3981L12.8333 13.4169H15.1736V22.2336H13.7292L13.7264 15.3336L11.6889 22.2356H10.4556L8.4125 15.3231V22.2356L8.41111 22.2377ZM3.54444 14.9127L2.5875 18.4294H4.50694L3.54444 14.9127ZM29.7778 22.2356H28.3444V13.4169H29.7792V22.2336L29.7778 22.2356ZM20.9083 22.2356H16.2222V13.4169H20.9167V15.2502H17.6278V16.8398H20.8375V18.6502H17.625V20.4127H20.9139V22.2336L20.9083 22.2356Z" fill="black"/>
</g>
<defs>
<clipPath id="clip0_152_672">
<rect width="50" height="50" fill="white"/>
</clipPath>
</defs>
</svg>
