<svg width="50" height="50" viewBox="0 0 50 50" fill="none" xmlns="http://www.w3.org/2000/svg">
<g clip-path="url(#clip0_152_665)">
<path d="M18.9838 0.640351L12.4375 35.7096H8.1668L4.94531 7.72105C4.75 6.00132 4.58027 5.36842 3.98594 4.64123C3.01445 3.45614 1.41016 2.34781 0 1.65833L0.0951172 0.640351H6.9709C7.8459 0.640351 8.63379 1.94868 8.83418 4.21404L10.5363 24.5092L14.7387 0.640351H18.9838ZM24.7572 0.640351L21.4168 35.7096H17.3762L20.717 0.640351H24.7574H24.7572ZM35.7174 24.2596C35.7342 15.0057 30.0193 14.4921 30.0566 10.3575C30.0703 9.10044 30.6035 7.76228 31.7707 7.42018C32.3488 7.25219 33.9461 7.11842 35.7553 8.99035L36.4631 1.54912C35.491 0.759649 34.24 0 32.684 0C28.6898 0 25.8803 4.76403 25.8578 11.5912C25.8316 16.6412 27.8646 19.4557 29.3936 21.1377C30.9684 22.8553 31.4965 23.9592 31.4893 25.4943C31.4779 27.8474 30.2314 28.889 29.0727 28.9276C27.0406 29 25.8627 27.6943 24.923 26.7114L24.1896 34.3991C25.135 35.3719 26.8771 36.2171 28.6816 36.2601C32.9277 36.2601 35.7049 31.5509 35.7174 24.2601V24.2596ZM46.2643 35.7096H50L46.7363 0.640351H43.2896C42.5123 0.640351 41.859 1.65351 41.5691 3.21096L35.5066 35.7096H39.7494L40.591 30.4711H45.7746L46.2645 35.7096H46.2643ZM41.7545 23.2846L43.8818 10.1149L45.1039 23.2846H41.7543H41.7545ZM29.9283 45.3627H28.2865V48.7939H30.1229V49.8254H27.7334V40.307H30.0287V41.3386H28.2865V44.3461H29.9281V45.3636L29.9283 45.3627ZM30.9711 39.7987H31.5242V49.825H30.9711V39.7987ZM32.9199 46.6333C32.9324 48.3145 33.4043 49.0061 33.9637 49.0061C34.3602 49.0061 34.6053 48.8509 34.8068 48.6535L34.9072 49.5434C34.7123 49.7408 34.3729 49.9807 33.8883 49.9807C32.9516 49.9807 32.392 48.5829 32.392 46.5206C32.392 44.4592 32.9324 42.8487 33.8193 42.8487C34.8193 42.8487 35.0771 44.7982 35.0771 46.0548C35.0771 46.3088 35.0707 46.4921 35.058 46.6338H32.9199V46.6333ZM34.5424 45.7439C34.5488 44.9675 34.3979 43.7386 33.7752 43.7386C33.2092 43.7386 32.9701 44.8825 32.926 45.7439H34.5424ZM38.0881 49.5851C37.9436 49.7408 37.6227 49.9811 37.2141 49.9811C36.2959 49.9811 35.6984 48.5829 35.6984 46.4925C35.6984 44.3882 36.3396 42.8491 37.3334 42.8491C37.6604 42.8491 37.9496 43.032 38.1006 43.2162L37.9752 44.1623C37.8426 44.007 37.6352 43.8368 37.3334 43.8368C36.6352 43.8368 36.2582 45.0092 36.2582 46.4224C36.2582 48.0035 36.7109 48.9781 37.3146 48.9781C37.6291 48.9781 37.8365 48.8088 37.9938 48.6535L38.0881 49.5851ZM39.6404 41.3518V42.9899H40.4326V43.9355H39.6404V47.6219C39.6404 48.4702 39.7475 48.9496 40.0555 48.9496C40.2062 48.9496 40.2945 48.9219 40.3764 48.8645L40.4016 49.8118C40.2945 49.8961 40.1248 49.9807 39.9109 49.9807C39.6529 49.9807 39.4453 49.7829 39.3135 49.4588C39.1625 49.0768 39.0996 48.4702 39.0996 47.6649V43.9355H38.6277V42.9899H39.0996V41.7193L39.6406 41.3522L39.6404 41.3518ZM41.2055 45.1228C41.2055 44.3175 41.1988 43.6259 41.1803 42.9899H41.6646L41.69 44.3452H41.7084C41.8471 43.4281 42.1863 42.8487 42.5572 42.8487C42.6141 42.8487 42.6582 42.8632 42.7086 42.8768V44.0496C42.652 44.0206 42.5955 44.0206 42.5195 44.0206C42.1301 44.0206 41.8529 44.6702 41.7777 45.6031C41.7648 45.7947 41.7584 45.9882 41.7588 46.182V49.8259H41.2055V45.1228ZM46.11 46.3509C46.11 48.8789 45.3236 49.9807 44.5943 49.9807C43.7766 49.9807 43.1353 48.6246 43.1353 46.4645C43.1353 44.1904 43.8082 42.8491 44.6447 42.8491C45.5187 42.8491 46.11 44.2746 46.11 46.3513V46.3509ZM43.7012 46.4219C43.7012 47.9189 44.0785 49.0491 44.6193 49.0491C45.1479 49.0491 45.5438 47.9325 45.5438 46.3934C45.5438 45.2355 45.2859 43.7803 44.6318 43.7803C43.9844 43.7803 43.7012 45.1368 43.7012 46.4219ZM46.958 44.8399C46.958 44.1202 46.9514 43.5548 46.9326 42.9903H47.4232L47.4547 44.1202H47.4672C47.6182 43.4842 47.9703 42.8491 48.4734 42.8491C48.8945 42.8491 49.5488 43.414 49.5488 45.7575V49.8254H48.9955V45.8851C48.9955 44.7842 48.8131 43.8653 48.2912 43.8653C47.9326 43.8653 47.6494 44.4447 47.5492 45.1364C47.5238 45.2921 47.5113 45.5035 47.5113 45.7158V49.8254H46.958V44.8399Z" fill="#1A1F71"/>
</g>
<defs>
<clipPath id="clip0_152_665">
<rect width="50" height="50" fill="white"/>
</clipPath>
</defs>
</svg>
