<svg width="64" height="64" viewBox="0 0 64 64" fill="none" xmlns="http://www.w3.org/2000/svg">
<g clip-path="url(#clip0_129_294)">
<path d="M64 7.7933C61.6034 9.09374 59.0614 9.94735 56.4585 10.3257C59.1698 8.33531 61.2515 5.18338 62.2318 1.4279C59.6544 3.30131 56.8345 4.62125 53.894 5.33068C51.4988 2.20509 48.0865 0.251709 44.3097 0.251709C37.0583 0.251709 31.179 7.45278 31.179 16.3344C31.179 17.5951 31.2952 18.8224 31.519 19.9998C20.6065 19.3289 10.9315 12.9262 4.45525 3.19571C3.32525 5.57106 2.67775 8.33408 2.67775 11.2811C2.67775 16.8611 4.996 21.7836 8.519 24.6679C6.43387 24.5879 4.39462 23.8981 2.5715 22.656C2.57075 22.7234 2.57075 22.7907 2.57075 22.8584C2.57075 30.6508 7.09675 37.1512 13.1032 38.6287C11.1697 39.2728 9.14157 39.3671 7.17375 38.9043C8.8445 45.2939 13.6938 49.9436 19.4393 50.0737C14.9455 54.3871 9.28375 56.9585 3.13225 56.9585C2.07225 56.9585 1.02725 56.8822 0 56.7337C5.81075 61.297 12.7125 63.9596 20.1275 63.9596C44.2793 63.9596 57.486 39.4525 57.486 18.1996C57.486 17.502 57.4735 16.8084 57.448 16.1188C60.0186 13.8426 62.2373 11.0234 64 7.7933Z" fill="#55ACEE"/>
</g>
<defs>
<clipPath id="clip0_129_294">
<rect width="64" height="64" fill="white"/>
</clipPath>
</defs>
</svg>
