<svg width="64" height="64" viewBox="0 0 64 64" fill="none" xmlns="http://www.w3.org/2000/svg">
<path d="M54.4002 3.19995H9.60019C6.08019 3.19995 3.2002 6.07995 3.2002 9.59995V54.3999C3.2002 57.9231 6.08019 60.7999 9.60019 60.7999H32.0002V38.3999H25.6002V30.4799H32.0002V23.92C32.0002 16.9951 35.8786 12.1312 44.0514 12.1312L49.821 12.1376V20.4735H45.9906C42.8098 20.4735 41.6002 22.8608 41.6002 25.0751V30.4832H49.8178L48.0002 38.3999H41.6002V60.7999H54.4002C57.9202 60.7999 60.8002 57.9231 60.8002 54.3999V9.59995C60.8002 6.07995 57.9202 3.19995 54.4002 3.19995Z" fill="#1464F8"/>
</svg>
